<?xml version="1.0" encoding="UTF-8" standalone="no"?>
<!-- This is a Stata 15.0 generated SVG file (http://www.stata.com) -->

<svg version="1.1" width="5.50in" height="4.00in" viewBox="0 0 3960 2880" xmlns="http://www.w3.org/2000/svg" xmlns:xlink="http://www.w3.org/1999/xlink">
	<desc>Stata Graph - Cropped</desc>
	<rect x="0" y="0" width="3960" height="2880" style="fill:#FFFFFF;stroke:none"/>
	<rect x="0.00" y="0.00" width="3959.88" height="2880.00" style="fill:#FFFFFF"/>
	<rect x="2.88" y="2.88" width="3954.12" height="2874.24" style="fill:none;stroke:#FFFFFF;stroke-width:5.76"/>
	<rect x="397.86" y="57.55" width="3417.98" height="2488.44" style="fill:#FFFFFF"/>
	<rect x="400.74" y="60.43" width="3412.22" height="2482.68" style="fill:none;stroke:#FFFFFF;stroke-width:5.76"/>
	<line x1="397.86" y1="1477.74" x2="3815.83" y2="1477.74" style="stroke:#FFFFFF;stroke-width:8.64"/>
	<line x1="397.86" y1="221.02" x2="3815.83" y2="221.02" style="stroke:#FFFFFF;stroke-width:8.64"/>
	<line x1="397.86" y1="1251.52" x2="3815.83" y2="1251.52" style="stroke:#D9C263;stroke-width:8.64"/>
	<line x1="3815.83" y1="711.21" x2="3776.48" y2="723.71" style="stroke:#505050;stroke-width:7.20"/>
	<line x1="3776.48" y1="723.71" x2="3761.01" y2="728.66" style="stroke:#505050;stroke-width:7.20"/>
	<line x1="3733.66" y1="737.57" x2="3697.90" y2="748.83" style="stroke:#505050;stroke-width:7.20"/>
	<line x1="3697.90" y1="748.83" x2="3678.84" y2="755.02" style="stroke:#505050;stroke-width:7.20"/>
	<line x1="3651.37" y1="763.81" x2="3619.44" y2="774.08" style="stroke:#505050;stroke-width:7.20"/>
	<line x1="3619.44" y1="774.08" x2="3596.55" y2="781.26" style="stroke:#505050;stroke-width:7.20"/>
	<line x1="3569.07" y1="790.04" x2="3540.86" y2="799.20" style="stroke:#505050;stroke-width:7.20"/>
	<line x1="3540.86" y1="799.20" x2="3514.25" y2="807.62" style="stroke:#505050;stroke-width:7.20"/>
	<line x1="3486.78" y1="816.40" x2="3462.28" y2="824.32" style="stroke:#505050;stroke-width:7.20"/>
	<line x1="3462.28" y1="824.32" x2="3431.96" y2="833.98" style="stroke:#505050;stroke-width:7.20"/>
	<line x1="3404.49" y1="842.76" x2="3383.70" y2="849.45" style="stroke:#505050;stroke-width:7.20"/>
	<line x1="3383.70" y1="849.45" x2="3349.67" y2="860.21" style="stroke:#505050;stroke-width:7.20"/>
	<line x1="3322.32" y1="869.00" x2="3305.11" y2="874.57" style="stroke:#505050;stroke-width:7.20"/>
	<line x1="3305.11" y1="874.57" x2="3267.37" y2="886.70" style="stroke:#505050;stroke-width:7.20"/>
	<line x1="3239.90" y1="895.48" x2="3226.53" y2="899.69" style="stroke:#505050;stroke-width:7.20"/>
	<line x1="3226.53" y1="899.69" x2="3187.18" y2="912.31" style="stroke:#505050;stroke-width:7.20"/>
	<line x1="3187.18" y1="912.31" x2="3185.08" y2="912.93" style="stroke:#505050;stroke-width:7.20"/>
	<line x1="3157.61" y1="921.72" x2="3147.95" y2="924.81" style="stroke:#505050;stroke-width:7.20"/>
	<line x1="3147.95" y1="924.81" x2="3108.60" y2="937.44" style="stroke:#505050;stroke-width:7.20"/>
	<line x1="3108.60" y1="937.44" x2="3102.78" y2="939.29" style="stroke:#505050;stroke-width:7.20"/>
	<line x1="3075.43" y1="947.95" x2="3069.37" y2="949.93" style="stroke:#505050;stroke-width:7.20"/>
	<line x1="3069.37" y1="949.93" x2="3030.02" y2="962.56" style="stroke:#505050;stroke-width:7.20"/>
	<line x1="3030.02" y1="962.56" x2="3020.61" y2="965.53" style="stroke:#505050;stroke-width:7.20"/>
	<line x1="2993.14" y1="974.31" x2="2990.79" y2="975.06" style="stroke:#505050;stroke-width:7.20"/>
	<line x1="2990.79" y1="975.06" x2="2951.44" y2="987.68" style="stroke:#505050;stroke-width:7.20"/>
	<line x1="2951.44" y1="987.68" x2="2938.32" y2="991.89" style="stroke:#505050;stroke-width:7.20"/>
	<line x1="2910.72" y1="1000.55" x2="2872.98" y2="1012.80" style="stroke:#505050;stroke-width:7.20"/>
	<line x1="2872.98" y1="1012.80" x2="2855.90" y2="1018.25" style="stroke:#505050;stroke-width:7.20"/>
	<line x1="2828.55" y1="1027.03" x2="2794.40" y2="1037.92" style="stroke:#505050;stroke-width:7.20"/>
	<line x1="2794.40" y1="1037.92" x2="2773.73" y2="1044.61" style="stroke:#505050;stroke-width:7.20"/>
	<line x1="2746.26" y1="1053.39" x2="2715.82" y2="1063.05" style="stroke:#505050;stroke-width:7.20"/>
	<line x1="2715.82" y1="1063.05" x2="2691.44" y2="1070.84" style="stroke:#505050;stroke-width:7.20"/>
	<line x1="2663.97" y1="1079.63" x2="2637.24" y2="1088.17" style="stroke:#505050;stroke-width:7.20"/>
	<line x1="2637.24" y1="1088.17" x2="2609.15" y2="1097.20" style="stroke:#505050;stroke-width:7.20"/>
	<line x1="2581.67" y1="1105.99" x2="2558.66" y2="1113.29" style="stroke:#505050;stroke-width:7.20"/>
	<line x1="2558.66" y1="1113.29" x2="2526.73" y2="1123.56" style="stroke:#505050;stroke-width:7.20"/>
	<line x1="2499.26" y1="1132.35" x2="2480.07" y2="1138.54" style="stroke:#505050;stroke-width:7.20"/>
	<line x1="2480.07" y1="1138.54" x2="2444.43" y2="1149.80" style="stroke:#505050;stroke-width:7.20"/>
	<line x1="2417.09" y1="1158.58" x2="2401.49" y2="1163.66" style="stroke:#505050;stroke-width:7.20"/>
	<line x1="2401.49" y1="1163.66" x2="2362.26" y2="1176.16" style="stroke:#505050;stroke-width:7.20"/>
	<line x1="2334.79" y1="1185.07" x2="2322.91" y2="1188.78" style="stroke:#505050;stroke-width:7.20"/>
	<line x1="2322.91" y1="1188.78" x2="2283.56" y2="1201.28" style="stroke:#505050;stroke-width:7.20"/>
	<line x1="2283.56" y1="1201.28" x2="2279.97" y2="1202.39" style="stroke:#505050;stroke-width:7.20"/>
	<line x1="2252.50" y1="1211.30" x2="2244.33" y2="1213.90" style="stroke:#505050;stroke-width:7.20"/>
	<line x1="2244.33" y1="1213.90" x2="2204.98" y2="1226.40" style="stroke:#505050;stroke-width:7.20"/>
	<line x1="2204.98" y1="1226.40" x2="2197.68" y2="1228.75" style="stroke:#505050;stroke-width:7.20"/>
	<line x1="2170.20" y1="1237.54" x2="2165.75" y2="1239.02" style="stroke:#505050;stroke-width:7.20"/>
	<line x1="2165.75" y1="1239.02" x2="2126.52" y2="1251.65" style="stroke:#505050;stroke-width:7.20"/>
	<line x1="2126.52" y1="1251.65" x2="2115.38" y2="1255.24" style="stroke:#505050;stroke-width:7.20"/>
	<line x1="2087.91" y1="1263.90" x2="2087.17" y2="1264.15" style="stroke:#505050;stroke-width:7.20"/>
	<line x1="2087.17" y1="1264.15" x2="2047.94" y2="1276.77" style="stroke:#505050;stroke-width:7.20"/>
	<line x1="2047.94" y1="1276.77" x2="2033.09" y2="1281.47" style="stroke:#505050;stroke-width:7.20"/>
	<line x1="2005.62" y1="1290.13" x2="1969.36" y2="1301.89" style="stroke:#505050;stroke-width:7.20"/>
	<line x1="1969.36" y1="1301.89" x2="1950.80" y2="1307.83" style="stroke:#505050;stroke-width:7.20"/>
	<line x1="1923.32" y1="1316.49" x2="1890.78" y2="1327.01" style="stroke:#505050;stroke-width:7.20"/>
	<line x1="1890.78" y1="1327.01" x2="1868.50" y2="1334.07" style="stroke:#505050;stroke-width:7.20"/>
	<line x1="1841.03" y1="1342.85" x2="1812.19" y2="1352.13" style="stroke:#505050;stroke-width:7.20"/>
	<line x1="1812.19" y1="1352.13" x2="1786.21" y2="1360.43" style="stroke:#505050;stroke-width:7.20"/>
	<line x1="1758.73" y1="1369.21" x2="1733.61" y2="1377.26" style="stroke:#505050;stroke-width:7.20"/>
	<line x1="1733.61" y1="1377.26" x2="1703.91" y2="1386.79" style="stroke:#505050;stroke-width:7.20"/>
	<line x1="1676.44" y1="1395.57" x2="1655.03" y2="1402.38" style="stroke:#505050;stroke-width:7.20"/>
	<line x1="1655.03" y1="1402.38" x2="1621.62" y2="1413.15" style="stroke:#505050;stroke-width:7.20"/>
	<line x1="1594.15" y1="1421.93" x2="1576.45" y2="1427.50" style="stroke:#505050;stroke-width:7.20"/>
	<line x1="1576.45" y1="1427.50" x2="1539.33" y2="1439.38" style="stroke:#505050;stroke-width:7.20"/>
	<line x1="1511.85" y1="1448.17" x2="1497.87" y2="1452.62" style="stroke:#505050;stroke-width:7.20"/>
	<line x1="1497.87" y1="1452.62" x2="1458.52" y2="1465.25" style="stroke:#505050;stroke-width:7.20"/>
	<line x1="1458.52" y1="1465.25" x2="1457.03" y2="1465.74" style="stroke:#505050;stroke-width:7.20"/>
	<line x1="1429.56" y1="1474.53" x2="1419.29" y2="1477.87" style="stroke:#505050;stroke-width:7.20"/>
	<line x1="1419.29" y1="1477.87" x2="1380.06" y2="1490.37" style="stroke:#505050;stroke-width:7.20"/>
	<line x1="1380.06" y1="1490.37" x2="1374.62" y2="1492.10" style="stroke:#505050;stroke-width:7.20"/>
	<line x1="1347.27" y1="1500.89" x2="1340.71" y2="1502.99" style="stroke:#505050;stroke-width:7.20"/>
	<line x1="1340.71" y1="1502.99" x2="1301.48" y2="1515.49" style="stroke:#505050;stroke-width:7.20"/>
	<line x1="1301.48" y1="1515.49" x2="1292.44" y2="1518.34" style="stroke:#505050;stroke-width:7.20"/>
	<line x1="1264.97" y1="1527.25" x2="1262.13" y2="1528.11" style="stroke:#505050;stroke-width:7.20"/>
	<line x1="1262.13" y1="1528.11" x2="1222.90" y2="1540.61" style="stroke:#505050;stroke-width:7.20"/>
	<line x1="1222.90" y1="1540.61" x2="1210.15" y2="1544.70" style="stroke:#505050;stroke-width:7.20"/>
	<line x1="1182.68" y1="1553.48" x2="1144.32" y2="1565.73" style="stroke:#505050;stroke-width:7.20"/>
	<line x1="1144.32" y1="1565.73" x2="1127.86" y2="1571.06" style="stroke:#505050;stroke-width:7.20"/>
	<line x1="1100.39" y1="1579.84" x2="1065.73" y2="1590.98" style="stroke:#505050;stroke-width:7.20"/>
	<line x1="1065.73" y1="1590.98" x2="1045.56" y2="1597.29" style="stroke:#505050;stroke-width:7.20"/>
	<line x1="1018.09" y1="1606.08" x2="987.15" y2="1616.10" style="stroke:#505050;stroke-width:7.20"/>
	<line x1="987.15" y1="1616.10" x2="963.27" y2="1623.65" style="stroke:#505050;stroke-width:7.20"/>
	<line x1="935.92" y1="1632.44" x2="908.57" y2="1641.22" style="stroke:#505050;stroke-width:7.20"/>
	<line x1="908.57" y1="1641.22" x2="881.10" y2="1649.89" style="stroke:#505050;stroke-width:7.20"/>
	<line x1="853.63" y1="1658.80" x2="829.99" y2="1666.35" style="stroke:#505050;stroke-width:7.20"/>
	<line x1="829.99" y1="1666.35" x2="798.81" y2="1676.25" style="stroke:#505050;stroke-width:7.20"/>
	<line x1="771.46" y1="1685.03" x2="751.41" y2="1691.47" style="stroke:#505050;stroke-width:7.20"/>
	<line x1="751.41" y1="1691.47" x2="716.51" y2="1702.61" style="stroke:#505050;stroke-width:7.20"/>
	<line x1="689.04" y1="1711.39" x2="672.83" y2="1716.59" style="stroke:#505050;stroke-width:7.20"/>
	<line x1="672.83" y1="1716.59" x2="634.22" y2="1728.97" style="stroke:#505050;stroke-width:7.20"/>
	<line x1="606.75" y1="1737.75" x2="594.25" y2="1741.71" style="stroke:#505050;stroke-width:7.20"/>
	<line x1="594.25" y1="1741.71" x2="555.02" y2="1754.33" style="stroke:#505050;stroke-width:7.20"/>
	<line x1="555.02" y1="1754.33" x2="551.92" y2="1755.32" style="stroke:#505050;stroke-width:7.20"/>
	<line x1="524.45" y1="1763.99" x2="515.67" y2="1766.83" style="stroke:#505050;stroke-width:7.20"/>
	<line x1="515.67" y1="1766.83" x2="476.44" y2="1779.46" style="stroke:#505050;stroke-width:7.20"/>
	<line x1="476.44" y1="1779.46" x2="469.63" y2="1781.68" style="stroke:#505050;stroke-width:7.20"/>
	<line x1="442.16" y1="1790.35" x2="437.08" y2="1791.96" style="stroke:#505050;stroke-width:7.20"/>
	<line x1="437.08" y1="1791.96" x2="397.86" y2="1804.58" style="stroke:#505050;stroke-width:7.20"/>
	<line x1="2676.71" y1="1055.87" x2="2676.71" y2="1019.98" stroke-linecap="round" style="fill:none;stroke:#000000;stroke-width:12.96"/>
	<line x1="2676.71" y1="1055.87" x2="2676.71" y2="1019.98" stroke-linecap="round" style="fill:none;stroke:#000000;stroke-width:12.96"/>
	<text x="2762.22" y="1153.92" style="font-family:'Helvetica';font-size:79.94px;fill:#166Baa" text-anchor="middle">235</text>
	<text x="2762.22" y="1153.92" style="font-family:'Helvetica';font-size:79.94px;fill:#166Baa" text-anchor="middle">235</text>
	<line x1="2676.71" y1="804.52" x2="2676.71" y2="768.64" stroke-linecap="round" style="fill:none;stroke:#000000;stroke-width:12.96"/>
	<line x1="2676.71" y1="804.52" x2="2676.71" y2="768.64" stroke-linecap="round" style="fill:none;stroke:#000000;stroke-width:12.96"/>
	<text x="2599.86" y="761.09" style="font-family:'Helvetica';font-size:79.94px;fill:#DC2222" text-anchor="middle">255</text>
	<text x="2599.86" y="761.09" style="font-family:'Helvetica';font-size:79.94px;fill:#DC2222" text-anchor="middle">255</text>
	<text x="445.75" y="1217.91" style="font-family:'Helvetica';font-size:79.94px;fill:#DB7029">Majority (218)</text>
	<text x="444.01" y="1606.24" style="font-family:'Helvetica';font-size:79.94px;fill:#505050">Proportional</text>
	<line x1="397.86" y1="2545.99" x2="397.86" y2="57.55" style="stroke:#000000;stroke-width:5.76"/>
	<line x1="397.86" y1="1477.74" x2="357.88" y2="1477.74" style="stroke:#000000;stroke-width:5.76"/>
	<text x="337.84" y="1505.76" style="font-family:'Helvetica';font-size:79.94px;fill:#000000" text-anchor="end">200</text>
	<line x1="397.86" y1="221.02" x2="357.88" y2="221.02" style="stroke:#000000;stroke-width:5.76"/>
	<text x="337.84" y="249.04" style="font-family:'Helvetica';font-size:79.94px;fill:#000000" text-anchor="end">300</text>
	<line x1="397.86" y1="2420.38" x2="357.88" y2="2420.38" style="stroke:#FFFFFF;stroke-width:5.76"/>
	<line x1="397.86" y1="95.29" x2="357.88" y2="95.29" style="stroke:#FFFFFF;stroke-width:5.76"/>
	<text x="127.34" y="1162.51" style="font-family:'Helvetica';font-size:79.94px;fill:#000000" text-anchor="middle">Seats</text>
	<line x1="397.86" y1="2545.99" x2="3815.83" y2="2545.99" style="stroke:#000000;stroke-width:5.76"/>
	<line x1="397.86" y1="2545.99" x2="397.86" y2="2585.96" style="stroke:#000000;stroke-width:5.76"/>
	<text x="397.86" y="2675.94" style="font-family:'Helvetica';font-size:99.99px;fill:#000000" text-anchor="middle">-20</text>
	<line x1="2106.84" y1="2545.99" x2="2106.84" y2="2585.96" style="stroke:#000000;stroke-width:5.76"/>
	<text x="2106.84" y="2675.94" style="font-family:'Helvetica';font-size:99.99px;fill:#000000" text-anchor="middle">0</text>
	<line x1="3815.83" y1="2545.99" x2="3815.83" y2="2585.96" style="stroke:#000000;stroke-width:5.76"/>
	<text x="3815.83" y="2675.94" style="font-family:'Helvetica';font-size:99.99px;fill:#000000" text-anchor="middle">+20%</text>
	<line x1="397.86" y1="2545.99" x2="397.86" y2="2585.96" style="stroke:#000000;stroke-width:5.76"/>
	<line x1="1252.35" y1="2545.99" x2="1252.35" y2="2585.96" style="stroke:#000000;stroke-width:5.76"/>
	<line x1="2106.84" y1="2545.99" x2="2106.84" y2="2585.96" style="stroke:#000000;stroke-width:5.76"/>
	<line x1="2961.34" y1="2545.99" x2="2961.34" y2="2585.96" style="stroke:#000000;stroke-width:5.76"/>
	<line x1="3815.83" y1="2545.99" x2="3815.83" y2="2585.96" style="stroke:#000000;stroke-width:5.76"/>
	<text x="2106.84" y="2829.89" style="font-family:'Helvetica';font-size:99.99px;fill:#000000" text-anchor="middle">Popular Vote Margin</text>
</svg>
