<?xml version="1.0" encoding="UTF-8" standalone="no"?>
<!-- This is a Stata 15.0 generated SVG file (http://www.stata.com) -->

<svg version="1.1" width="5.50in" height="4.00in" viewBox="0 0 3960 2880" xmlns="http://www.w3.org/2000/svg" xmlns:xlink="http://www.w3.org/1999/xlink">
	<desc>Stata Graph - Cropped</desc>
	<rect x="0" y="0" width="3960" height="2880" style="fill:#FFFFFF;stroke:none"/>
	<rect x="0.00" y="0.00" width="3959.88" height="2880.00" style="fill:#FFFFFF"/>
	<rect x="2.88" y="2.88" width="3954.12" height="2874.24" style="fill:none;stroke:#FFFFFF;stroke-width:5.76"/>
	<rect x="397.86" y="57.55" width="3417.98" height="2488.44" style="fill:#FFFFFF"/>
	<rect x="400.74" y="60.43" width="3412.22" height="2482.68" style="fill:none;stroke:#FFFFFF;stroke-width:5.76"/>
	<line x1="397.86" y1="2545.99" x2="3815.83" y2="2545.99" style="stroke:#FFFFFF;stroke-width:8.64"/>
	<line x1="397.86" y1="1459.31" x2="3815.83" y2="1459.31" style="stroke:#FFFFFF;stroke-width:8.64"/>
	<line x1="397.86" y1="372.75" x2="3815.83" y2="372.75" style="stroke:#FFFFFF;stroke-width:8.64"/>
	<line x1="397.86" y1="1263.77" x2="3815.83" y2="1263.77" style="stroke:#D9C263;stroke-width:8.64"/>
	<line x1="3815.83" y1="796.60" x2="3776.48" y2="807.49" style="stroke:#505050;stroke-width:7.20"/>
	<line x1="3776.48" y1="807.49" x2="3760.39" y2="811.95" style="stroke:#505050;stroke-width:7.20"/>
	<line x1="3732.55" y1="819.50" x2="3697.90" y2="829.15" style="stroke:#505050;stroke-width:7.20"/>
	<line x1="3697.90" y1="829.15" x2="3677.11" y2="834.97" style="stroke:#505050;stroke-width:7.20"/>
	<line x1="3649.39" y1="842.64" x2="3619.44" y2="850.93" style="stroke:#505050;stroke-width:7.20"/>
	<line x1="3619.44" y1="850.93" x2="3593.82" y2="857.99" style="stroke:#505050;stroke-width:7.20"/>
	<line x1="3566.10" y1="865.66" x2="3540.86" y2="872.59" style="stroke:#505050;stroke-width:7.20"/>
	<line x1="3540.86" y1="872.59" x2="3510.54" y2="881.00" style="stroke:#505050;stroke-width:7.20"/>
	<line x1="3482.70" y1="888.68" x2="3462.28" y2="894.37" style="stroke:#505050;stroke-width:7.20"/>
	<line x1="3462.28" y1="894.37" x2="3427.26" y2="904.02" style="stroke:#505050;stroke-width:7.20"/>
	<line x1="3399.41" y1="911.82" x2="3383.70" y2="916.15" style="stroke:#505050;stroke-width:7.20"/>
	<line x1="3383.70" y1="916.15" x2="3344.34" y2="926.92" style="stroke:#505050;stroke-width:7.20"/>
	<line x1="3344.34" y1="926.92" x2="3343.97" y2="927.04" style="stroke:#505050;stroke-width:7.20"/>
	<line x1="3316.13" y1="934.84" x2="3305.11" y2="937.81" style="stroke:#505050;stroke-width:7.20"/>
	<line x1="3305.11" y1="937.81" x2="3265.76" y2="948.70" style="stroke:#505050;stroke-width:7.20"/>
	<line x1="3265.76" y1="948.70" x2="3260.69" y2="950.06" style="stroke:#505050;stroke-width:7.20"/>
	<line x1="3232.84" y1="957.85" x2="3226.53" y2="959.59" style="stroke:#505050;stroke-width:7.20"/>
	<line x1="3226.53" y1="959.59" x2="3187.18" y2="970.48" style="stroke:#505050;stroke-width:7.20"/>
	<line x1="3187.18" y1="970.48" x2="3177.41" y2="973.20" style="stroke:#505050;stroke-width:7.20"/>
	<line x1="3149.56" y1="980.87" x2="3147.95" y2="981.24" style="stroke:#505050;stroke-width:7.20"/>
	<line x1="3147.95" y1="981.24" x2="3108.60" y2="992.13" style="stroke:#505050;stroke-width:7.20"/>
	<line x1="3108.60" y1="992.13" x2="3094.12" y2="996.09" style="stroke:#505050;stroke-width:7.20"/>
	<line x1="3066.28" y1="1003.89" x2="3030.02" y2="1013.92" style="stroke:#505050;stroke-width:7.20"/>
	<line x1="3030.02" y1="1013.92" x2="3010.84" y2="1019.24" style="stroke:#505050;stroke-width:7.20"/>
	<line x1="2982.99" y1="1026.91" x2="2951.44" y2="1035.70" style="stroke:#505050;stroke-width:7.20"/>
	<line x1="2951.44" y1="1035.70" x2="2927.55" y2="1042.26" style="stroke:#505050;stroke-width:7.20"/>
	<line x1="2899.71" y1="1049.93" x2="2872.98" y2="1057.35" style="stroke:#505050;stroke-width:7.20"/>
	<line x1="2872.98" y1="1057.35" x2="2844.27" y2="1065.27" style="stroke:#505050;stroke-width:7.20"/>
	<line x1="2816.43" y1="1072.95" x2="2794.40" y2="1079.13" style="stroke:#505050;stroke-width:7.20"/>
	<line x1="2794.40" y1="1079.13" x2="2760.99" y2="1088.42" style="stroke:#505050;stroke-width:7.20"/>
	<line x1="2733.14" y1="1096.09" x2="2715.82" y2="1100.79" style="stroke:#505050;stroke-width:7.20"/>
	<line x1="2715.82" y1="1100.79" x2="2677.58" y2="1111.31" style="stroke:#505050;stroke-width:7.20"/>
	<line x1="2649.86" y1="1118.98" x2="2637.24" y2="1122.57" style="stroke:#505050;stroke-width:7.20"/>
	<line x1="2637.24" y1="1122.57" x2="2597.88" y2="1133.46" style="stroke:#505050;stroke-width:7.20"/>
	<line x1="2597.88" y1="1133.46" x2="2594.30" y2="1134.45" style="stroke:#505050;stroke-width:7.20"/>
	<line x1="2566.57" y1="1142.12" x2="2558.66" y2="1144.35" style="stroke:#505050;stroke-width:7.20"/>
	<line x1="2558.66" y1="1144.35" x2="2519.30" y2="1155.12" style="stroke:#505050;stroke-width:7.20"/>
	<line x1="2519.30" y1="1155.12" x2="2511.01" y2="1157.35" style="stroke:#505050;stroke-width:7.20"/>
	<line x1="2483.29" y1="1165.14" x2="2480.07" y2="1166.01" style="stroke:#505050;stroke-width:7.20"/>
	<line x1="2480.07" y1="1166.01" x2="2440.72" y2="1176.90" style="stroke:#505050;stroke-width:7.20"/>
	<line x1="2440.72" y1="1176.90" x2="2427.73" y2="1180.49" style="stroke:#505050;stroke-width:7.20"/>
	<line x1="2400.01" y1="1188.28" x2="2362.14" y2="1198.68" style="stroke:#505050;stroke-width:7.20"/>
	<line x1="2362.14" y1="1198.68" x2="2344.44" y2="1203.51" style="stroke:#505050;stroke-width:7.20"/>
	<line x1="2316.72" y1="1211.18" x2="2283.56" y2="1220.34" style="stroke:#505050;stroke-width:7.20"/>
	<line x1="2283.56" y1="1220.34" x2="2261.28" y2="1226.52" style="stroke:#505050;stroke-width:7.20"/>
	<line x1="2233.44" y1="1234.20" x2="2204.98" y2="1242.12" style="stroke:#505050;stroke-width:7.20"/>
	<line x1="2204.98" y1="1242.12" x2="2178.00" y2="1249.54" style="stroke:#505050;stroke-width:7.20"/>
	<line x1="2150.28" y1="1257.22" x2="2126.52" y2="1263.77" style="stroke:#505050;stroke-width:7.20"/>
	<line x1="2126.52" y1="1263.77" x2="2094.72" y2="1272.56" style="stroke:#505050;stroke-width:7.20"/>
	<line x1="2066.87" y1="1280.23" x2="2047.94" y2="1285.56" style="stroke:#505050;stroke-width:7.20"/>
	<line x1="2047.94" y1="1285.56" x2="2011.43" y2="1295.70" style="stroke:#505050;stroke-width:7.20"/>
	<line x1="1983.59" y1="1303.38" x2="1969.36" y2="1307.34" style="stroke:#505050;stroke-width:7.20"/>
	<line x1="1969.36" y1="1307.34" x2="1930.01" y2="1318.23" style="stroke:#505050;stroke-width:7.20"/>
	<line x1="1930.01" y1="1318.23" x2="1928.15" y2="1318.72" style="stroke:#505050;stroke-width:7.20"/>
	<line x1="1900.31" y1="1326.39" x2="1890.78" y2="1328.99" style="stroke:#505050;stroke-width:7.20"/>
	<line x1="1890.78" y1="1328.99" x2="1851.42" y2="1339.88" style="stroke:#505050;stroke-width:7.20"/>
	<line x1="1851.42" y1="1339.88" x2="1844.87" y2="1341.74" style="stroke:#505050;stroke-width:7.20"/>
	<line x1="1817.02" y1="1349.41" x2="1812.19" y2="1350.77" style="stroke:#505050;stroke-width:7.20"/>
	<line x1="1812.19" y1="1350.77" x2="1772.84" y2="1361.66" style="stroke:#505050;stroke-width:7.20"/>
	<line x1="1772.84" y1="1361.66" x2="1761.58" y2="1364.76" style="stroke:#505050;stroke-width:7.20"/>
	<line x1="1733.74" y1="1372.43" x2="1733.61" y2="1372.55" style="stroke:#505050;stroke-width:7.20"/>
	<line x1="1733.61" y1="1372.55" x2="1694.26" y2="1383.32" style="stroke:#505050;stroke-width:7.20"/>
	<line x1="1694.26" y1="1383.32" x2="1678.30" y2="1387.78" style="stroke:#505050;stroke-width:7.20"/>
	<line x1="1650.45" y1="1395.45" x2="1615.68" y2="1405.10" style="stroke:#505050;stroke-width:7.20"/>
	<line x1="1615.68" y1="1405.10" x2="1595.01" y2="1410.79" style="stroke:#505050;stroke-width:7.20"/>
	<line x1="1567.17" y1="1418.59" x2="1537.10" y2="1426.88" style="stroke:#505050;stroke-width:7.20"/>
	<line x1="1537.10" y1="1426.88" x2="1511.73" y2="1433.81" style="stroke:#505050;stroke-width:7.20"/>
	<line x1="1484.01" y1="1441.49" x2="1458.52" y2="1448.54" style="stroke:#505050;stroke-width:7.20"/>
	<line x1="1458.52" y1="1448.54" x2="1428.45" y2="1456.83" style="stroke:#505050;stroke-width:7.20"/>
	<line x1="1400.73" y1="1464.63" x2="1380.06" y2="1470.32" style="stroke:#505050;stroke-width:7.20"/>
	<line x1="1380.06" y1="1470.32" x2="1345.16" y2="1479.97" style="stroke:#505050;stroke-width:7.20"/>
	<line x1="1317.44" y1="1487.65" x2="1301.48" y2="1491.98" style="stroke:#505050;stroke-width:7.20"/>
	<line x1="1301.48" y1="1491.98" x2="1262.13" y2="1502.87" style="stroke:#505050;stroke-width:7.20"/>
	<line x1="1262.13" y1="1502.87" x2="1261.88" y2="1502.87" style="stroke:#505050;stroke-width:7.20"/>
	<line x1="1234.04" y1="1510.66" x2="1222.90" y2="1513.76" style="stroke:#505050;stroke-width:7.20"/>
	<line x1="1222.90" y1="1513.76" x2="1183.55" y2="1524.65" style="stroke:#505050;stroke-width:7.20"/>
	<line x1="1183.55" y1="1524.65" x2="1178.60" y2="1526.01" style="stroke:#505050;stroke-width:7.20"/>
	<line x1="1150.75" y1="1533.68" x2="1144.32" y2="1535.54" style="stroke:#505050;stroke-width:7.20"/>
	<line x1="1144.32" y1="1535.54" x2="1104.96" y2="1546.30" style="stroke:#505050;stroke-width:7.20"/>
	<line x1="1104.96" y1="1546.30" x2="1095.31" y2="1549.03" style="stroke:#505050;stroke-width:7.20"/>
	<line x1="1067.47" y1="1556.70" x2="1065.73" y2="1557.19" style="stroke:#505050;stroke-width:7.20"/>
	<line x1="1065.73" y1="1557.19" x2="1026.38" y2="1568.09" style="stroke:#505050;stroke-width:7.20"/>
	<line x1="1026.38" y1="1568.09" x2="1012.03" y2="1572.05" style="stroke:#505050;stroke-width:7.20"/>
	<line x1="984.18" y1="1579.72" x2="947.80" y2="1589.87" style="stroke:#505050;stroke-width:7.20"/>
	<line x1="947.80" y1="1589.87" x2="928.74" y2="1595.06" style="stroke:#505050;stroke-width:7.20"/>
	<line x1="901.02" y1="1602.74" x2="869.22" y2="1611.52" style="stroke:#505050;stroke-width:7.20"/>
	<line x1="869.22" y1="1611.52" x2="845.58" y2="1618.08" style="stroke:#505050;stroke-width:7.20"/>
	<line x1="817.74" y1="1625.75" x2="790.64" y2="1633.30" style="stroke:#505050;stroke-width:7.20"/>
	<line x1="790.64" y1="1633.30" x2="762.18" y2="1641.22" style="stroke:#505050;stroke-width:7.20"/>
	<line x1="734.46" y1="1648.90" x2="712.06" y2="1655.08" style="stroke:#505050;stroke-width:7.20"/>
	<line x1="712.06" y1="1655.08" x2="678.89" y2="1664.24" style="stroke:#505050;stroke-width:7.20"/>
	<line x1="651.17" y1="1671.91" x2="633.60" y2="1676.74" style="stroke:#505050;stroke-width:7.20"/>
	<line x1="633.60" y1="1676.74" x2="595.61" y2="1687.26" style="stroke:#505050;stroke-width:7.20"/>
	<line x1="567.89" y1="1694.93" x2="555.02" y2="1698.52" style="stroke:#505050;stroke-width:7.20"/>
	<line x1="555.02" y1="1698.52" x2="515.67" y2="1709.41" style="stroke:#505050;stroke-width:7.20"/>
	<line x1="515.67" y1="1709.41" x2="512.33" y2="1710.28" style="stroke:#505050;stroke-width:7.20"/>
	<line x1="484.61" y1="1717.95" x2="476.44" y2="1720.18" style="stroke:#505050;stroke-width:7.20"/>
	<line x1="476.44" y1="1720.18" x2="437.08" y2="1731.07" style="stroke:#505050;stroke-width:7.20"/>
	<line x1="437.08" y1="1731.07" x2="429.04" y2="1733.30" style="stroke:#505050;stroke-width:7.20"/>
	<line x1="401.32" y1="1740.97" x2="397.86" y2="1741.96" style="stroke:#505050;stroke-width:7.20"/>
	<line x1="2676.71" y1="1097.08" x2="2676.71" y2="1061.19" stroke-linecap="round" style="fill:none;stroke:#000000;stroke-width:12.96"/>
	<line x1="2676.71" y1="1097.08" x2="2676.71" y2="1061.19" stroke-linecap="round" style="fill:none;stroke:#000000;stroke-width:12.96"/>
	<text x="2762.22" y="1183.13" style="font-family:'Helvetica';font-size:79.94px;fill:#166Baa" text-anchor="middle">235</text>
	<text x="2762.22" y="1183.13" style="font-family:'Helvetica';font-size:79.94px;fill:#166Baa" text-anchor="middle">235</text>
	<line x1="2676.71" y1="879.77" x2="2676.71" y2="843.88" stroke-linecap="round" style="fill:none;stroke:#000000;stroke-width:12.96"/>
	<line x1="2676.71" y1="879.77" x2="2676.71" y2="843.88" stroke-linecap="round" style="fill:none;stroke:#000000;stroke-width:12.96"/>
	<text x="2599.86" y="836.20" style="font-family:'Helvetica';font-size:79.94px;fill:#DC2222" text-anchor="middle">255</text>
	<text x="2599.86" y="836.20" style="font-family:'Helvetica';font-size:79.94px;fill:#DC2222" text-anchor="middle">255</text>
	<text x="445.75" y="1238.57" style="font-family:'Helvetica';font-size:79.94px;fill:#DB7029">Majority (218)</text>
	<text x="444.01" y="1574.32" style="font-family:'Helvetica';font-size:79.94px;fill:#505050">Proportional</text>
	<line x1="397.86" y1="2545.99" x2="397.86" y2="57.55" style="stroke:#000000;stroke-width:5.76"/>
	<line x1="397.86" y1="2545.99" x2="357.88" y2="2545.99" style="stroke:#000000;stroke-width:5.76"/>
	<text x="337.84" y="2574.00" style="font-family:'Helvetica';font-size:79.94px;fill:#000000" text-anchor="end">100</text>
	<line x1="397.86" y1="1459.31" x2="357.88" y2="1459.31" style="stroke:#000000;stroke-width:5.76"/>
	<text x="337.84" y="1487.32" style="font-family:'Helvetica';font-size:79.94px;fill:#000000" text-anchor="end">200</text>
	<line x1="397.86" y1="372.75" x2="357.88" y2="372.75" style="stroke:#000000;stroke-width:5.76"/>
	<text x="337.84" y="400.76" style="font-family:'Helvetica';font-size:79.94px;fill:#000000" text-anchor="end">300</text>
	<line x1="397.86" y1="2274.35" x2="357.88" y2="2274.35" style="stroke:#00FF00;stroke-width:5.76"/>
	<line x1="397.86" y1="264.09" x2="357.88" y2="264.09" style="stroke:#00FF00;stroke-width:5.76"/>
	<text x="127.34" y="1162.51" style="font-family:'Helvetica';font-size:79.94px;fill:#000000" text-anchor="middle">Seats</text>
	<line x1="397.86" y1="2545.99" x2="3815.83" y2="2545.99" style="stroke:#000000;stroke-width:5.76"/>
	<line x1="397.86" y1="2545.99" x2="397.86" y2="2585.96" style="stroke:#000000;stroke-width:5.76"/>
	<text x="397.86" y="2675.94" style="font-family:'Helvetica';font-size:99.99px;fill:#000000" text-anchor="middle">-20</text>
	<line x1="2106.84" y1="2545.99" x2="2106.84" y2="2585.96" style="stroke:#000000;stroke-width:5.76"/>
	<text x="2106.84" y="2675.94" style="font-family:'Helvetica';font-size:99.99px;fill:#000000" text-anchor="middle">0</text>
	<line x1="3815.83" y1="2545.99" x2="3815.83" y2="2585.96" style="stroke:#000000;stroke-width:5.76"/>
	<text x="3815.83" y="2675.94" style="font-family:'Helvetica';font-size:99.99px;fill:#000000" text-anchor="middle">+20%</text>
	<line x1="397.86" y1="2545.99" x2="397.86" y2="2585.96" style="stroke:#000000;stroke-width:5.76"/>
	<line x1="1252.35" y1="2545.99" x2="1252.35" y2="2585.96" style="stroke:#000000;stroke-width:5.76"/>
	<line x1="2106.84" y1="2545.99" x2="2106.84" y2="2585.96" style="stroke:#000000;stroke-width:5.76"/>
	<line x1="2961.34" y1="2545.99" x2="2961.34" y2="2585.96" style="stroke:#000000;stroke-width:5.76"/>
	<line x1="3815.83" y1="2545.99" x2="3815.83" y2="2585.96" style="stroke:#000000;stroke-width:5.76"/>
	<text x="2106.84" y="2829.89" style="font-family:'Helvetica';font-size:99.99px;fill:#000000" text-anchor="middle">Popular Vote Margin</text>
</svg>
