<?xml version="1.0" encoding="UTF-8" standalone="no"?>
<!-- This is a Stata 15.0 generated SVG file (http://www.stata.com) -->

<svg version="1.1" width="5.50in" height="4.00in" viewBox="0 0 3960 2880" xmlns="http://www.w3.org/2000/svg" xmlns:xlink="http://www.w3.org/1999/xlink">
	<desc>Stata Graph - Uncropped</desc>
	<rect x="0" y="0" width="3960" height="2880" style="fill:#FFFFFF;stroke:none"/>
	<rect x="0.00" y="0.00" width="3959.88" height="2880.00" style="fill:#FFFFFF"/>
	<rect x="2.88" y="2.88" width="3954.12" height="2874.24" style="fill:none;stroke:#FFFFFF;stroke-width:5.76"/>
	<rect x="397.86" y="57.55" width="3417.98" height="2430.90" style="fill:#FFFFFF"/>
	<rect x="400.74" y="60.43" width="3412.22" height="2425.14" style="fill:none;stroke:#FFFFFF;stroke-width:5.76"/>
	<line x1="397.86" y1="2382.76" x2="3815.83" y2="2382.76" style="stroke:#FFFFFF;stroke-width:8.64"/>
	<line x1="397.86" y1="1854.33" x2="3815.83" y2="1854.33" style="stroke:#FFFFFF;stroke-width:8.64"/>
	<line x1="397.86" y1="1325.90" x2="3815.83" y2="1325.90" style="stroke:#FFFFFF;stroke-width:8.64"/>
	<line x1="397.86" y1="797.47" x2="3815.83" y2="797.47" style="stroke:#FFFFFF;stroke-width:8.64"/>
	<line x1="397.86" y1="268.92" x2="3815.83" y2="268.92" style="stroke:#FFFFFF;stroke-width:8.64"/>
	<line x1="397.86" y1="1230.73" x2="3815.83" y2="1230.73" style="stroke:#D9C263;stroke-width:8.64"/>
	<text x="439.81" y="1206.48" style="font-family:'Helvetica';font-size:79.94px;fill:#DB7029">Majority (218)</text>
	<line x1="3807.91" y1="89.35" x2="3800.11" y2="94.67" style="stroke:#505050;stroke-width:7.20"/>
	<line x1="3800.11" y1="94.67" x2="3792.20" y2="99.99" style="stroke:#505050;stroke-width:7.20"/>
	<line x1="3792.20" y1="99.99" x2="3784.40" y2="105.19" style="stroke:#505050;stroke-width:7.20"/>
	<line x1="3784.40" y1="105.19" x2="3776.48" y2="110.51" style="stroke:#505050;stroke-width:7.20"/>
	<line x1="3776.48" y1="110.51" x2="3768.68" y2="115.83" style="stroke:#505050;stroke-width:7.20"/>
	<line x1="3768.68" y1="115.83" x2="3760.76" y2="121.03" style="stroke:#505050;stroke-width:7.20"/>
	<line x1="3760.76" y1="121.03" x2="3760.14" y2="121.40" style="stroke:#505050;stroke-width:7.20"/>
	<line x1="3736.26" y1="137.61" x2="3729.33" y2="142.19" style="stroke:#505050;stroke-width:7.20"/>
	<line x1="3729.33" y1="142.19" x2="3721.53" y2="147.51" style="stroke:#505050;stroke-width:7.20"/>
	<line x1="3721.53" y1="147.51" x2="3713.61" y2="152.84" style="stroke:#505050;stroke-width:7.20"/>
	<line x1="3713.61" y1="152.84" x2="3705.82" y2="158.03" style="stroke:#505050;stroke-width:7.20"/>
	<line x1="3705.82" y1="158.03" x2="3697.90" y2="163.36" style="stroke:#505050;stroke-width:7.20"/>
	<line x1="3697.90" y1="163.36" x2="3690.10" y2="168.68" style="stroke:#505050;stroke-width:7.20"/>
	<line x1="3690.10" y1="168.68" x2="3688.49" y2="169.79" style="stroke:#505050;stroke-width:7.20"/>
	<line x1="3664.61" y1="185.88" x2="3658.67" y2="189.71" style="stroke:#505050;stroke-width:7.20"/>
	<line x1="3658.67" y1="189.71" x2="3650.87" y2="195.04" style="stroke:#505050;stroke-width:7.20"/>
	<line x1="3650.87" y1="195.04" x2="3642.95" y2="200.36" style="stroke:#505050;stroke-width:7.20"/>
	<line x1="3642.95" y1="200.36" x2="3635.16" y2="205.68" style="stroke:#505050;stroke-width:7.20"/>
	<line x1="3635.16" y1="205.68" x2="3627.24" y2="210.88" style="stroke:#505050;stroke-width:7.20"/>
	<line x1="3627.24" y1="210.88" x2="3619.44" y2="216.20" style="stroke:#505050;stroke-width:7.20"/>
	<line x1="3619.44" y1="216.20" x2="3616.72" y2="218.05" style="stroke:#505050;stroke-width:7.20"/>
	<line x1="3592.83" y1="234.02" x2="3588.01" y2="237.36" style="stroke:#505050;stroke-width:7.20"/>
	<line x1="3588.01" y1="237.36" x2="3580.09" y2="242.56" style="stroke:#505050;stroke-width:7.20"/>
	<line x1="3580.09" y1="242.56" x2="3572.29" y2="247.88" style="stroke:#505050;stroke-width:7.20"/>
	<line x1="3572.29" y1="247.88" x2="3564.37" y2="253.20" style="stroke:#505050;stroke-width:7.20"/>
	<line x1="3564.37" y1="253.20" x2="3556.57" y2="258.52" style="stroke:#505050;stroke-width:7.20"/>
	<line x1="3556.57" y1="258.52" x2="3548.66" y2="263.72" style="stroke:#505050;stroke-width:7.20"/>
	<line x1="3548.66" y1="263.72" x2="3545.07" y2="266.19" style="stroke:#505050;stroke-width:7.20"/>
	<line x1="3521.06" y1="282.28" x2="3517.22" y2="284.88" style="stroke:#505050;stroke-width:7.20"/>
	<line x1="3517.22" y1="284.88" x2="3509.43" y2="290.20" style="stroke:#505050;stroke-width:7.20"/>
	<line x1="3509.43" y1="290.20" x2="3501.51" y2="295.40" style="stroke:#505050;stroke-width:7.20"/>
	<line x1="3501.51" y1="295.40" x2="3493.71" y2="300.72" style="stroke:#505050;stroke-width:7.20"/>
	<line x1="3493.71" y1="300.72" x2="3485.79" y2="306.04" style="stroke:#505050;stroke-width:7.20"/>
	<line x1="3485.79" y1="306.04" x2="3477.99" y2="311.36" style="stroke:#505050;stroke-width:7.20"/>
	<line x1="3477.99" y1="311.36" x2="3473.29" y2="314.46" style="stroke:#505050;stroke-width:7.20"/>
	<line x1="3449.41" y1="330.55" x2="3446.56" y2="332.40" style="stroke:#505050;stroke-width:7.20"/>
	<line x1="3446.56" y1="332.40" x2="3438.64" y2="337.72" style="stroke:#505050;stroke-width:7.20"/>
	<line x1="3438.64" y1="337.72" x2="3430.84" y2="343.05" style="stroke:#505050;stroke-width:7.20"/>
	<line x1="3430.84" y1="343.05" x2="3422.93" y2="348.24" style="stroke:#505050;stroke-width:7.20"/>
	<line x1="3422.93" y1="348.24" x2="3415.13" y2="353.56" style="stroke:#505050;stroke-width:7.20"/>
	<line x1="3415.13" y1="353.56" x2="3407.21" y2="358.89" style="stroke:#505050;stroke-width:7.20"/>
	<line x1="3407.21" y1="358.89" x2="3401.64" y2="362.72" style="stroke:#505050;stroke-width:7.20"/>
	<line x1="3377.63" y1="378.81" x2="3375.78" y2="380.05" style="stroke:#505050;stroke-width:7.20"/>
	<line x1="3375.78" y1="380.05" x2="3367.98" y2="385.25" style="stroke:#505050;stroke-width:7.20"/>
	<line x1="3367.98" y1="385.25" x2="3360.06" y2="390.57" style="stroke:#505050;stroke-width:7.20"/>
	<line x1="3360.06" y1="390.57" x2="3352.26" y2="395.89" style="stroke:#505050;stroke-width:7.20"/>
	<line x1="3352.26" y1="395.89" x2="3344.34" y2="401.09" style="stroke:#505050;stroke-width:7.20"/>
	<line x1="3344.34" y1="401.09" x2="3336.55" y2="406.41" style="stroke:#505050;stroke-width:7.20"/>
	<line x1="3336.55" y1="406.41" x2="3329.86" y2="410.99" style="stroke:#505050;stroke-width:7.20"/>
	<line x1="3305.86" y1="427.07" x2="3305.11" y2="427.57" style="stroke:#505050;stroke-width:7.20"/>
	<line x1="3305.11" y1="427.57" x2="3297.20" y2="432.89" style="stroke:#505050;stroke-width:7.20"/>
	<line x1="3297.20" y1="432.89" x2="3289.40" y2="438.09" style="stroke:#505050;stroke-width:7.20"/>
	<line x1="3289.40" y1="438.09" x2="3281.48" y2="443.41" style="stroke:#505050;stroke-width:7.20"/>
	<line x1="3281.48" y1="443.41" x2="3273.68" y2="448.73" style="stroke:#505050;stroke-width:7.20"/>
	<line x1="3273.68" y1="448.73" x2="3265.76" y2="453.93" style="stroke:#505050;stroke-width:7.20"/>
	<line x1="3265.76" y1="453.93" x2="3258.09" y2="459.25" style="stroke:#505050;stroke-width:7.20"/>
	<line x1="3234.21" y1="475.21" x2="3226.53" y2="480.41" style="stroke:#505050;stroke-width:7.20"/>
	<line x1="3226.53" y1="480.41" x2="3218.61" y2="485.73" style="stroke:#505050;stroke-width:7.20"/>
	<line x1="3218.61" y1="485.73" x2="3210.82" y2="490.93" style="stroke:#505050;stroke-width:7.20"/>
	<line x1="3210.82" y1="490.93" x2="3202.90" y2="496.25" style="stroke:#505050;stroke-width:7.20"/>
	<line x1="3202.90" y1="496.25" x2="3195.10" y2="501.57" style="stroke:#505050;stroke-width:7.20"/>
	<line x1="3195.10" y1="501.57" x2="3187.18" y2="506.77" style="stroke:#505050;stroke-width:7.20"/>
	<line x1="3187.18" y1="506.77" x2="3186.32" y2="507.39" style="stroke:#505050;stroke-width:7.20"/>
	<line x1="3162.43" y1="523.60" x2="3155.75" y2="527.93" style="stroke:#505050;stroke-width:7.20"/>
	<line x1="3155.75" y1="527.93" x2="3147.95" y2="533.26" style="stroke:#505050;stroke-width:7.20"/>
	<line x1="3147.95" y1="533.26" x2="3140.03" y2="538.58" style="stroke:#505050;stroke-width:7.20"/>
	<line x1="3140.03" y1="538.58" x2="3132.24" y2="543.77" style="stroke:#505050;stroke-width:7.20"/>
	<line x1="3132.24" y1="543.77" x2="3124.32" y2="549.10" style="stroke:#505050;stroke-width:7.20"/>
	<line x1="3124.32" y1="549.10" x2="3116.52" y2="554.42" style="stroke:#505050;stroke-width:7.20"/>
	<line x1="3116.52" y1="554.42" x2="3114.66" y2="555.65" style="stroke:#505050;stroke-width:7.20"/>
	<line x1="3090.66" y1="571.74" x2="3085.09" y2="575.58" style="stroke:#505050;stroke-width:7.20"/>
	<line x1="3085.09" y1="575.58" x2="3077.17" y2="580.78" style="stroke:#505050;stroke-width:7.20"/>
	<line x1="3077.17" y1="580.78" x2="3069.37" y2="586.10" style="stroke:#505050;stroke-width:7.20"/>
	<line x1="3069.37" y1="586.10" x2="3061.45" y2="591.42" style="stroke:#505050;stroke-width:7.20"/>
	<line x1="3061.45" y1="591.42" x2="3053.66" y2="596.62" style="stroke:#505050;stroke-width:7.20"/>
	<line x1="3053.66" y1="596.62" x2="3045.74" y2="601.94" style="stroke:#505050;stroke-width:7.20"/>
	<line x1="3045.74" y1="601.94" x2="3042.89" y2="603.80" style="stroke:#505050;stroke-width:7.20"/>
	<line x1="3019.01" y1="620.01" x2="3014.30" y2="623.10" style="stroke:#505050;stroke-width:7.20"/>
	<line x1="3014.30" y1="623.10" x2="3006.51" y2="628.42" style="stroke:#505050;stroke-width:7.20"/>
	<line x1="3006.51" y1="628.42" x2="2998.59" y2="633.62" style="stroke:#505050;stroke-width:7.20"/>
	<line x1="2998.59" y1="633.62" x2="2990.79" y2="638.94" style="stroke:#505050;stroke-width:7.20"/>
	<line x1="2990.79" y1="638.94" x2="2982.87" y2="644.26" style="stroke:#505050;stroke-width:7.20"/>
	<line x1="2982.87" y1="644.26" x2="2975.07" y2="649.46" style="stroke:#505050;stroke-width:7.20"/>
	<line x1="2975.07" y1="649.46" x2="2971.11" y2="652.06" style="stroke:#505050;stroke-width:7.20"/>
	<line x1="2947.23" y1="668.15" x2="2943.64" y2="670.62" style="stroke:#505050;stroke-width:7.20"/>
	<line x1="2943.64" y1="670.62" x2="2935.72" y2="675.94" style="stroke:#505050;stroke-width:7.20"/>
	<line x1="2935.72" y1="675.94" x2="2927.93" y2="681.27" style="stroke:#505050;stroke-width:7.20"/>
	<line x1="2927.93" y1="681.27" x2="2920.13" y2="686.46" style="stroke:#505050;stroke-width:7.20"/>
	<line x1="2920.13" y1="686.46" x2="2912.21" y2="691.78" style="stroke:#505050;stroke-width:7.20"/>
	<line x1="2912.21" y1="691.78" x2="2904.41" y2="697.11" style="stroke:#505050;stroke-width:7.20"/>
	<line x1="2904.41" y1="697.11" x2="2899.46" y2="700.32" style="stroke:#505050;stroke-width:7.20"/>
	<line x1="2875.58" y1="716.53" x2="2872.98" y2="718.27" style="stroke:#505050;stroke-width:7.20"/>
	<line x1="2872.98" y1="718.27" x2="2865.06" y2="723.47" style="stroke:#505050;stroke-width:7.20"/>
	<line x1="2865.06" y1="723.47" x2="2857.26" y2="728.79" style="stroke:#505050;stroke-width:7.20"/>
	<line x1="2857.26" y1="728.79" x2="2849.34" y2="734.11" style="stroke:#505050;stroke-width:7.20"/>
	<line x1="2849.34" y1="734.11" x2="2841.55" y2="739.31" style="stroke:#505050;stroke-width:7.20"/>
	<line x1="2841.55" y1="739.31" x2="2833.63" y2="744.63" style="stroke:#505050;stroke-width:7.20"/>
	<line x1="2833.63" y1="744.63" x2="2827.81" y2="748.59" style="stroke:#505050;stroke-width:7.20"/>
	<line x1="2803.80" y1="764.68" x2="2802.20" y2="765.79" style="stroke:#505050;stroke-width:7.20"/>
	<line x1="2802.20" y1="765.79" x2="2794.40" y2="771.11" style="stroke:#505050;stroke-width:7.20"/>
	<line x1="2794.40" y1="771.11" x2="2786.48" y2="776.31" style="stroke:#505050;stroke-width:7.20"/>
	<line x1="2786.48" y1="776.31" x2="2778.68" y2="781.63" style="stroke:#505050;stroke-width:7.20"/>
	<line x1="2778.68" y1="781.63" x2="2770.76" y2="786.95" style="stroke:#505050;stroke-width:7.20"/>
	<line x1="2770.76" y1="786.95" x2="2762.97" y2="792.15" style="stroke:#505050;stroke-width:7.20"/>
	<line x1="2762.97" y1="792.15" x2="2756.04" y2="796.85" style="stroke:#505050;stroke-width:7.20"/>
	<line x1="2732.15" y1="812.82" x2="2731.53" y2="813.31" style="stroke:#505050;stroke-width:7.20"/>
	<line x1="2731.53" y1="813.31" x2="2723.61" y2="818.63" style="stroke:#505050;stroke-width:7.20"/>
	<line x1="2723.61" y1="818.63" x2="2715.82" y2="823.95" style="stroke:#505050;stroke-width:7.20"/>
	<line x1="2715.82" y1="823.95" x2="2707.90" y2="829.15" style="stroke:#505050;stroke-width:7.20"/>
	<line x1="2707.90" y1="829.15" x2="2700.10" y2="834.47" style="stroke:#505050;stroke-width:7.20"/>
	<line x1="2700.10" y1="834.47" x2="2692.18" y2="839.79" style="stroke:#505050;stroke-width:7.20"/>
	<line x1="2692.18" y1="839.79" x2="2684.39" y2="844.99" style="stroke:#505050;stroke-width:7.20"/>
	<line x1="2684.39" y1="844.99" x2="2684.39" y2="844.99" style="stroke:#505050;stroke-width:7.20"/>
	<line x1="2660.38" y1="861.08" x2="2652.95" y2="866.15" style="stroke:#505050;stroke-width:7.20"/>
	<line x1="2652.95" y1="866.15" x2="2645.03" y2="871.47" style="stroke:#505050;stroke-width:7.20"/>
	<line x1="2645.03" y1="871.47" x2="2637.24" y2="876.80" style="stroke:#505050;stroke-width:7.20"/>
	<line x1="2637.24" y1="876.80" x2="2629.32" y2="881.99" style="stroke:#505050;stroke-width:7.20"/>
	<line x1="2629.32" y1="881.99" x2="2621.52" y2="887.32" style="stroke:#505050;stroke-width:7.20"/>
	<line x1="2621.52" y1="887.32" x2="2613.60" y2="892.64" style="stroke:#505050;stroke-width:7.20"/>
	<line x1="2613.60" y1="892.64" x2="2612.61" y2="893.26" style="stroke:#505050;stroke-width:7.20"/>
	<line x1="2588.73" y1="909.34" x2="2582.17" y2="913.67" style="stroke:#505050;stroke-width:7.20"/>
	<line x1="2582.17" y1="913.67" x2="2574.37" y2="919.00" style="stroke:#505050;stroke-width:7.20"/>
	<line x1="2574.37" y1="919.00" x2="2566.45" y2="924.32" style="stroke:#505050;stroke-width:7.20"/>
	<line x1="2566.45" y1="924.32" x2="2558.66" y2="929.64" style="stroke:#505050;stroke-width:7.20"/>
	<line x1="2558.66" y1="929.64" x2="2550.74" y2="934.84" style="stroke:#505050;stroke-width:7.20"/>
	<line x1="2550.74" y1="934.84" x2="2542.94" y2="940.16" style="stroke:#505050;stroke-width:7.20"/>
	<line x1="2542.94" y1="940.16" x2="2540.96" y2="941.52" style="stroke:#505050;stroke-width:7.20"/>
	<line x1="2516.95" y1="957.61" x2="2511.51" y2="961.32" style="stroke:#505050;stroke-width:7.20"/>
	<line x1="2511.51" y1="961.32" x2="2503.59" y2="966.52" style="stroke:#505050;stroke-width:7.20"/>
	<line x1="2503.59" y1="966.52" x2="2495.79" y2="971.84" style="stroke:#505050;stroke-width:7.20"/>
	<line x1="2495.79" y1="971.84" x2="2487.87" y2="977.16" style="stroke:#505050;stroke-width:7.20"/>
	<line x1="2487.87" y1="977.16" x2="2480.07" y2="982.48" style="stroke:#505050;stroke-width:7.20"/>
	<line x1="2480.07" y1="982.48" x2="2472.15" y2="987.68" style="stroke:#505050;stroke-width:7.20"/>
	<line x1="2472.15" y1="987.68" x2="2469.18" y2="989.66" style="stroke:#505050;stroke-width:7.20"/>
	<line x1="2445.30" y1="1005.75" x2="2440.72" y2="1008.84" style="stroke:#505050;stroke-width:7.20"/>
	<line x1="2440.72" y1="1008.84" x2="2432.93" y2="1014.16" style="stroke:#505050;stroke-width:7.20"/>
	<line x1="2432.93" y1="1014.16" x2="2425.01" y2="1019.36" style="stroke:#505050;stroke-width:7.20"/>
	<line x1="2425.01" y1="1019.36" x2="2417.21" y2="1024.68" style="stroke:#505050;stroke-width:7.20"/>
	<line x1="2417.21" y1="1024.68" x2="2409.29" y2="1030.00" style="stroke:#505050;stroke-width:7.20"/>
	<line x1="2409.29" y1="1030.00" x2="2401.49" y2="1035.32" style="stroke:#505050;stroke-width:7.20"/>
	<line x1="2401.49" y1="1035.32" x2="2397.53" y2="1037.92" style="stroke:#505050;stroke-width:7.20"/>
	<line x1="2373.53" y1="1054.01" x2="2370.06" y2="1056.36" style="stroke:#505050;stroke-width:7.20"/>
	<line x1="2370.06" y1="1056.36" x2="2362.14" y2="1061.68" style="stroke:#505050;stroke-width:7.20"/>
	<line x1="2362.14" y1="1061.68" x2="2354.34" y2="1067.01" style="stroke:#505050;stroke-width:7.20"/>
	<line x1="2354.34" y1="1067.01" x2="2346.42" y2="1072.20" style="stroke:#505050;stroke-width:7.20"/>
	<line x1="2346.42" y1="1072.20" x2="2338.63" y2="1077.52" style="stroke:#505050;stroke-width:7.20"/>
	<line x1="2338.63" y1="1077.52" x2="2330.71" y2="1082.85" style="stroke:#505050;stroke-width:7.20"/>
	<line x1="2330.71" y1="1082.85" x2="2325.76" y2="1086.19" style="stroke:#505050;stroke-width:7.20"/>
	<line x1="2301.75" y1="1102.28" x2="2299.28" y2="1104.01" style="stroke:#505050;stroke-width:7.20"/>
	<line x1="2299.28" y1="1104.01" x2="2291.48" y2="1109.21" style="stroke:#505050;stroke-width:7.20"/>
	<line x1="2291.48" y1="1109.21" x2="2283.56" y2="1114.53" style="stroke:#505050;stroke-width:7.20"/>
	<line x1="2283.56" y1="1114.53" x2="2275.76" y2="1119.85" style="stroke:#505050;stroke-width:7.20"/>
	<line x1="2275.76" y1="1119.85" x2="2267.84" y2="1125.05" style="stroke:#505050;stroke-width:7.20"/>
	<line x1="2267.84" y1="1125.05" x2="2260.05" y2="1130.37" style="stroke:#505050;stroke-width:7.20"/>
	<line x1="2260.05" y1="1130.37" x2="2253.98" y2="1134.45" style="stroke:#505050;stroke-width:7.20"/>
	<line x1="2230.10" y1="1150.54" x2="2228.61" y2="1151.53" style="stroke:#505050;stroke-width:7.20"/>
	<line x1="2228.61" y1="1151.53" x2="2220.69" y2="1156.85" style="stroke:#505050;stroke-width:7.20"/>
	<line x1="2220.69" y1="1156.85" x2="2212.90" y2="1162.05" style="stroke:#505050;stroke-width:7.20"/>
	<line x1="2212.90" y1="1162.05" x2="2204.98" y2="1167.37" style="stroke:#505050;stroke-width:7.20"/>
	<line x1="2204.98" y1="1167.37" x2="2197.18" y2="1172.69" style="stroke:#505050;stroke-width:7.20"/>
	<line x1="2197.18" y1="1172.69" x2="2189.26" y2="1177.89" style="stroke:#505050;stroke-width:7.20"/>
	<line x1="2189.26" y1="1177.89" x2="2182.21" y2="1182.72" style="stroke:#505050;stroke-width:7.20"/>
	<line x1="2158.32" y1="1198.80" x2="2157.95" y2="1199.05" style="stroke:#505050;stroke-width:7.20"/>
	<line x1="2157.95" y1="1199.05" x2="2150.03" y2="1204.37" style="stroke:#505050;stroke-width:7.20"/>
	<line x1="2150.03" y1="1204.37" x2="2142.24" y2="1209.69" style="stroke:#505050;stroke-width:7.20"/>
	<line x1="2142.24" y1="1209.69" x2="2134.32" y2="1214.89" style="stroke:#505050;stroke-width:7.20"/>
	<line x1="2134.32" y1="1214.89" x2="2126.52" y2="1220.21" style="stroke:#505050;stroke-width:7.20"/>
	<line x1="2126.52" y1="1220.21" x2="2118.60" y2="1225.53" style="stroke:#505050;stroke-width:7.20"/>
	<line x1="2118.60" y1="1225.53" x2="2110.80" y2="1230.73" style="stroke:#505050;stroke-width:7.20"/>
	<line x1="2110.80" y1="1230.73" x2="2110.56" y2="1230.98" style="stroke:#505050;stroke-width:7.20"/>
	<line x1="2086.67" y1="1247.07" x2="2079.37" y2="1251.89" style="stroke:#505050;stroke-width:7.20"/>
	<line x1="2079.37" y1="1251.89" x2="2071.45" y2="1257.22" style="stroke:#505050;stroke-width:7.20"/>
	<line x1="2071.45" y1="1257.22" x2="2063.66" y2="1262.54" style="stroke:#505050;stroke-width:7.20"/>
	<line x1="2063.66" y1="1262.54" x2="2055.74" y2="1267.73" style="stroke:#505050;stroke-width:7.20"/>
	<line x1="2055.74" y1="1267.73" x2="2047.94" y2="1273.06" style="stroke:#505050;stroke-width:7.20"/>
	<line x1="2047.94" y1="1273.06" x2="2040.02" y2="1278.38" style="stroke:#505050;stroke-width:7.20"/>
	<line x1="2040.02" y1="1278.38" x2="2038.91" y2="1279.24" style="stroke:#505050;stroke-width:7.20"/>
	<line x1="2014.90" y1="1295.33" x2="2008.59" y2="1299.54" style="stroke:#505050;stroke-width:7.20"/>
	<line x1="2008.59" y1="1299.54" x2="2000.79" y2="1304.74" style="stroke:#505050;stroke-width:7.20"/>
	<line x1="2000.79" y1="1304.74" x2="1992.87" y2="1310.06" style="stroke:#505050;stroke-width:7.20"/>
	<line x1="1992.87" y1="1310.06" x2="1985.07" y2="1315.38" style="stroke:#505050;stroke-width:7.20"/>
	<line x1="1985.07" y1="1315.38" x2="1977.15" y2="1320.58" style="stroke:#505050;stroke-width:7.20"/>
	<line x1="1977.15" y1="1320.58" x2="1969.36" y2="1325.90" style="stroke:#505050;stroke-width:7.20"/>
	<line x1="1969.36" y1="1325.90" x2="1967.13" y2="1327.51" style="stroke:#505050;stroke-width:7.20"/>
	<line x1="1943.25" y1="1343.47" x2="1937.93" y2="1347.06" style="stroke:#505050;stroke-width:7.20"/>
	<line x1="1937.93" y1="1347.06" x2="1930.01" y2="1352.38" style="stroke:#505050;stroke-width:7.20"/>
	<line x1="1930.01" y1="1352.38" x2="1922.21" y2="1357.58" style="stroke:#505050;stroke-width:7.20"/>
	<line x1="1922.21" y1="1357.58" x2="1914.29" y2="1362.90" style="stroke:#505050;stroke-width:7.20"/>
	<line x1="1914.29" y1="1362.90" x2="1906.49" y2="1368.22" style="stroke:#505050;stroke-width:7.20"/>
	<line x1="1906.49" y1="1368.22" x2="1898.57" y2="1373.42" style="stroke:#505050;stroke-width:7.20"/>
	<line x1="1898.57" y1="1373.42" x2="1895.36" y2="1375.52" style="stroke:#505050;stroke-width:7.20"/>
	<line x1="1871.47" y1="1391.74" x2="1867.14" y2="1394.58" style="stroke:#505050;stroke-width:7.20"/>
	<line x1="1867.14" y1="1394.58" x2="1859.34" y2="1399.90" style="stroke:#505050;stroke-width:7.20"/>
	<line x1="1859.34" y1="1399.90" x2="1851.42" y2="1405.23" style="stroke:#505050;stroke-width:7.20"/>
	<line x1="1851.42" y1="1405.23" x2="1843.63" y2="1410.42" style="stroke:#505050;stroke-width:7.20"/>
	<line x1="1843.63" y1="1410.42" x2="1835.71" y2="1415.74" style="stroke:#505050;stroke-width:7.20"/>
	<line x1="1835.71" y1="1415.74" x2="1827.91" y2="1421.07" style="stroke:#505050;stroke-width:7.20"/>
	<line x1="1827.91" y1="1421.07" x2="1823.70" y2="1423.91" style="stroke:#505050;stroke-width:7.20"/>
	<line x1="1799.82" y1="1439.88" x2="1796.48" y2="1442.10" style="stroke:#505050;stroke-width:7.20"/>
	<line x1="1796.48" y1="1442.10" x2="1788.56" y2="1447.43" style="stroke:#505050;stroke-width:7.20"/>
	<line x1="1788.56" y1="1447.43" x2="1780.76" y2="1452.75" style="stroke:#505050;stroke-width:7.20"/>
	<line x1="1780.76" y1="1452.75" x2="1772.84" y2="1458.07" style="stroke:#505050;stroke-width:7.20"/>
	<line x1="1772.84" y1="1458.07" x2="1765.05" y2="1463.27" style="stroke:#505050;stroke-width:7.20"/>
	<line x1="1765.05" y1="1463.27" x2="1757.13" y2="1468.59" style="stroke:#505050;stroke-width:7.20"/>
	<line x1="1757.13" y1="1468.59" x2="1752.05" y2="1472.05" style="stroke:#505050;stroke-width:7.20"/>
	<line x1="1728.05" y1="1488.14" x2="1725.69" y2="1489.75" style="stroke:#505050;stroke-width:7.20"/>
	<line x1="1725.69" y1="1489.75" x2="1717.90" y2="1494.95" style="stroke:#505050;stroke-width:7.20"/>
	<line x1="1717.90" y1="1494.95" x2="1709.98" y2="1500.27" style="stroke:#505050;stroke-width:7.20"/>
	<line x1="1709.98" y1="1500.27" x2="1702.18" y2="1505.59" style="stroke:#505050;stroke-width:7.20"/>
	<line x1="1702.18" y1="1505.59" x2="1694.26" y2="1510.91" style="stroke:#505050;stroke-width:7.20"/>
	<line x1="1694.26" y1="1510.91" x2="1686.46" y2="1516.11" style="stroke:#505050;stroke-width:7.20"/>
	<line x1="1686.46" y1="1516.11" x2="1680.28" y2="1520.32" style="stroke:#505050;stroke-width:7.20"/>
	<line x1="1656.27" y1="1536.40" x2="1655.03" y2="1537.27" style="stroke:#505050;stroke-width:7.20"/>
	<line x1="1655.03" y1="1537.27" x2="1647.11" y2="1542.59" style="stroke:#505050;stroke-width:7.20"/>
	<line x1="1647.11" y1="1542.59" x2="1639.32" y2="1547.91" style="stroke:#505050;stroke-width:7.20"/>
	<line x1="1639.32" y1="1547.91" x2="1631.40" y2="1553.11" style="stroke:#505050;stroke-width:7.20"/>
	<line x1="1631.40" y1="1553.11" x2="1623.60" y2="1558.43" style="stroke:#505050;stroke-width:7.20"/>
	<line x1="1623.60" y1="1558.43" x2="1615.68" y2="1563.75" style="stroke:#505050;stroke-width:7.20"/>
	<line x1="1615.68" y1="1563.75" x2="1608.50" y2="1568.58" style="stroke:#505050;stroke-width:7.20"/>
	<line x1="1584.49" y1="1584.67" x2="1584.25" y2="1584.79" style="stroke:#505050;stroke-width:7.20"/>
	<line x1="1584.25" y1="1584.79" x2="1576.45" y2="1590.11" style="stroke:#505050;stroke-width:7.20"/>
	<line x1="1576.45" y1="1590.11" x2="1568.53" y2="1595.43" style="stroke:#505050;stroke-width:7.20"/>
	<line x1="1568.53" y1="1595.43" x2="1560.73" y2="1600.76" style="stroke:#505050;stroke-width:7.20"/>
	<line x1="1560.73" y1="1600.76" x2="1552.82" y2="1605.95" style="stroke:#505050;stroke-width:7.20"/>
	<line x1="1552.82" y1="1605.95" x2="1545.02" y2="1611.28" style="stroke:#505050;stroke-width:7.20"/>
	<line x1="1545.02" y1="1611.28" x2="1537.10" y2="1616.60" style="stroke:#505050;stroke-width:7.20"/>
	<line x1="1537.10" y1="1616.60" x2="1536.73" y2="1616.72" style="stroke:#505050;stroke-width:7.20"/>
	<line x1="1512.84" y1="1632.81" x2="1505.67" y2="1637.63" style="stroke:#505050;stroke-width:7.20"/>
	<line x1="1505.67" y1="1637.63" x2="1497.87" y2="1642.96" style="stroke:#505050;stroke-width:7.20"/>
	<line x1="1497.87" y1="1642.96" x2="1489.95" y2="1648.28" style="stroke:#505050;stroke-width:7.20"/>
	<line x1="1489.95" y1="1648.28" x2="1482.15" y2="1653.60" style="stroke:#505050;stroke-width:7.20"/>
	<line x1="1482.15" y1="1653.60" x2="1474.23" y2="1658.80" style="stroke:#505050;stroke-width:7.20"/>
	<line x1="1474.23" y1="1658.80" x2="1466.44" y2="1664.12" style="stroke:#505050;stroke-width:7.20"/>
	<line x1="1466.44" y1="1664.12" x2="1465.08" y2="1664.98" style="stroke:#505050;stroke-width:7.20"/>
	<line x1="1441.19" y1="1681.07" x2="1435.01" y2="1685.28" style="stroke:#505050;stroke-width:7.20"/>
	<line x1="1435.01" y1="1685.28" x2="1427.21" y2="1690.48" style="stroke:#505050;stroke-width:7.20"/>
	<line x1="1427.21" y1="1690.48" x2="1419.29" y2="1695.80" style="stroke:#505050;stroke-width:7.20"/>
	<line x1="1419.29" y1="1695.80" x2="1411.49" y2="1701.12" style="stroke:#505050;stroke-width:7.20"/>
	<line x1="1411.49" y1="1701.12" x2="1403.57" y2="1706.44" style="stroke:#505050;stroke-width:7.20"/>
	<line x1="1403.57" y1="1706.44" x2="1395.78" y2="1711.64" style="stroke:#505050;stroke-width:7.20"/>
	<line x1="1395.78" y1="1711.64" x2="1393.43" y2="1713.25" style="stroke:#505050;stroke-width:7.20"/>
	<line x1="1369.54" y1="1729.34" x2="1364.34" y2="1732.80" style="stroke:#505050;stroke-width:7.20"/>
	<line x1="1364.34" y1="1732.80" x2="1356.42" y2="1738.12" style="stroke:#505050;stroke-width:7.20"/>
	<line x1="1356.42" y1="1738.12" x2="1348.63" y2="1743.32" style="stroke:#505050;stroke-width:7.20"/>
	<line x1="1348.63" y1="1743.32" x2="1340.71" y2="1748.64" style="stroke:#505050;stroke-width:7.20"/>
	<line x1="1340.71" y1="1748.64" x2="1332.91" y2="1753.96" style="stroke:#505050;stroke-width:7.20"/>
	<line x1="1332.91" y1="1753.96" x2="1324.99" y2="1759.28" style="stroke:#505050;stroke-width:7.20"/>
	<line x1="1324.99" y1="1759.28" x2="1321.77" y2="1761.51" style="stroke:#505050;stroke-width:7.20"/>
	<line x1="1297.89" y1="1777.48" x2="1293.56" y2="1780.32" style="stroke:#505050;stroke-width:7.20"/>
	<line x1="1293.56" y1="1780.32" x2="1285.76" y2="1785.64" style="stroke:#505050;stroke-width:7.20"/>
	<line x1="1285.76" y1="1785.64" x2="1277.84" y2="1790.97" style="stroke:#505050;stroke-width:7.20"/>
	<line x1="1277.84" y1="1790.97" x2="1270.05" y2="1796.16" style="stroke:#505050;stroke-width:7.20"/>
	<line x1="1270.05" y1="1796.16" x2="1262.13" y2="1801.49" style="stroke:#505050;stroke-width:7.20"/>
	<line x1="1262.13" y1="1801.49" x2="1254.33" y2="1806.81" style="stroke:#505050;stroke-width:7.20"/>
	<line x1="1254.33" y1="1806.81" x2="1250.12" y2="1809.65" style="stroke:#505050;stroke-width:7.20"/>
	<line x1="1226.12" y1="1825.74" x2="1222.90" y2="1827.97" style="stroke:#505050;stroke-width:7.20"/>
	<line x1="1222.90" y1="1827.97" x2="1214.98" y2="1833.17" style="stroke:#505050;stroke-width:7.20"/>
	<line x1="1214.98" y1="1833.17" x2="1207.18" y2="1838.49" style="stroke:#505050;stroke-width:7.20"/>
	<line x1="1207.18" y1="1838.49" x2="1199.26" y2="1843.81" style="stroke:#505050;stroke-width:7.20"/>
	<line x1="1199.26" y1="1843.81" x2="1191.46" y2="1849.01" style="stroke:#505050;stroke-width:7.20"/>
	<line x1="1191.46" y1="1849.01" x2="1183.55" y2="1854.33" style="stroke:#505050;stroke-width:7.20"/>
	<line x1="1183.55" y1="1854.33" x2="1178.35" y2="1857.92" style="stroke:#505050;stroke-width:7.20"/>
	<line x1="1154.46" y1="1874.00" x2="1152.11" y2="1875.49" style="stroke:#505050;stroke-width:7.20"/>
	<line x1="1152.11" y1="1875.49" x2="1144.32" y2="1880.81" style="stroke:#505050;stroke-width:7.20"/>
	<line x1="1144.32" y1="1880.81" x2="1136.40" y2="1886.01" style="stroke:#505050;stroke-width:7.20"/>
	<line x1="1136.40" y1="1886.01" x2="1128.60" y2="1891.33" style="stroke:#505050;stroke-width:7.20"/>
	<line x1="1128.60" y1="1891.33" x2="1120.68" y2="1896.65" style="stroke:#505050;stroke-width:7.20"/>
	<line x1="1120.68" y1="1896.65" x2="1112.88" y2="1901.85" style="stroke:#505050;stroke-width:7.20"/>
	<line x1="1112.88" y1="1901.85" x2="1106.57" y2="1906.06" style="stroke:#505050;stroke-width:7.20"/>
	<line x1="1082.69" y1="1922.15" x2="1081.45" y2="1923.01" style="stroke:#505050;stroke-width:7.20"/>
	<line x1="1081.45" y1="1923.01" x2="1073.53" y2="1928.33" style="stroke:#505050;stroke-width:7.20"/>
	<line x1="1073.53" y1="1928.33" x2="1065.73" y2="1933.65" style="stroke:#505050;stroke-width:7.20"/>
	<line x1="1065.73" y1="1933.65" x2="1057.82" y2="1938.85" style="stroke:#505050;stroke-width:7.20"/>
	<line x1="1057.82" y1="1938.85" x2="1050.02" y2="1944.17" style="stroke:#505050;stroke-width:7.20"/>
	<line x1="1050.02" y1="1944.17" x2="1042.10" y2="1949.49" style="stroke:#505050;stroke-width:7.20"/>
	<line x1="1042.10" y1="1949.49" x2="1034.80" y2="1954.32" style="stroke:#505050;stroke-width:7.20"/>
	<line x1="1010.91" y1="1970.41" x2="1010.67" y2="1970.66" style="stroke:#505050;stroke-width:7.20"/>
	<line x1="1010.67" y1="1970.66" x2="1002.87" y2="1975.85" style="stroke:#505050;stroke-width:7.20"/>
	<line x1="1002.87" y1="1975.85" x2="994.95" y2="1981.18" style="stroke:#505050;stroke-width:7.20"/>
	<line x1="994.95" y1="1981.18" x2="987.15" y2="1986.50" style="stroke:#505050;stroke-width:7.20"/>
	<line x1="987.15" y1="1986.50" x2="979.23" y2="1991.69" style="stroke:#505050;stroke-width:7.20"/>
	<line x1="979.23" y1="1991.69" x2="971.44" y2="1997.02" style="stroke:#505050;stroke-width:7.20"/>
	<line x1="971.44" y1="1997.02" x2="963.52" y2="2002.34" style="stroke:#505050;stroke-width:7.20"/>
	<line x1="963.52" y1="2002.34" x2="963.15" y2="2002.59" style="stroke:#505050;stroke-width:7.20"/>
	<line x1="939.26" y1="2018.67" x2="932.09" y2="2023.50" style="stroke:#505050;stroke-width:7.20"/>
	<line x1="932.09" y1="2023.50" x2="924.29" y2="2028.70" style="stroke:#505050;stroke-width:7.20"/>
	<line x1="924.29" y1="2028.70" x2="916.37" y2="2034.02" style="stroke:#505050;stroke-width:7.20"/>
	<line x1="916.37" y1="2034.02" x2="908.57" y2="2039.34" style="stroke:#505050;stroke-width:7.20"/>
	<line x1="908.57" y1="2039.34" x2="900.65" y2="2044.54" style="stroke:#505050;stroke-width:7.20"/>
	<line x1="900.65" y1="2044.54" x2="892.86" y2="2049.86" style="stroke:#505050;stroke-width:7.20"/>
	<line x1="892.86" y1="2049.86" x2="891.50" y2="2050.73" style="stroke:#505050;stroke-width:7.20"/>
	<line x1="867.49" y1="2066.81" x2="861.42" y2="2071.02" style="stroke:#505050;stroke-width:7.20"/>
	<line x1="861.42" y1="2071.02" x2="853.50" y2="2076.34" style="stroke:#505050;stroke-width:7.20"/>
	<line x1="853.50" y1="2076.34" x2="845.71" y2="2081.54" style="stroke:#505050;stroke-width:7.20"/>
	<line x1="845.71" y1="2081.54" x2="837.79" y2="2086.86" style="stroke:#505050;stroke-width:7.20"/>
	<line x1="837.79" y1="2086.86" x2="829.99" y2="2092.18" style="stroke:#505050;stroke-width:7.20"/>
	<line x1="829.99" y1="2092.18" x2="822.07" y2="2097.38" style="stroke:#505050;stroke-width:7.20"/>
	<line x1="822.07" y1="2097.38" x2="819.72" y2="2098.99" style="stroke:#505050;stroke-width:7.20"/>
	<line x1="795.84" y1="2115.08" x2="790.64" y2="2118.54" style="stroke:#505050;stroke-width:7.20"/>
	<line x1="790.64" y1="2118.54" x2="782.84" y2="2123.86" style="stroke:#505050;stroke-width:7.20"/>
	<line x1="782.84" y1="2123.86" x2="774.92" y2="2129.19" style="stroke:#505050;stroke-width:7.20"/>
	<line x1="774.92" y1="2129.19" x2="767.13" y2="2134.38" style="stroke:#505050;stroke-width:7.20"/>
	<line x1="767.13" y1="2134.38" x2="759.21" y2="2139.70" style="stroke:#505050;stroke-width:7.20"/>
	<line x1="759.21" y1="2139.70" x2="751.41" y2="2145.03" style="stroke:#505050;stroke-width:7.20"/>
	<line x1="751.41" y1="2145.03" x2="748.07" y2="2147.25" style="stroke:#505050;stroke-width:7.20"/>
	<line x1="724.06" y1="2163.34" x2="719.98" y2="2166.06" style="stroke:#505050;stroke-width:7.20"/>
	<line x1="719.98" y1="2166.06" x2="712.06" y2="2171.39" style="stroke:#505050;stroke-width:7.20"/>
	<line x1="712.06" y1="2171.39" x2="704.26" y2="2176.71" style="stroke:#505050;stroke-width:7.20"/>
	<line x1="704.26" y1="2176.71" x2="696.34" y2="2182.03" style="stroke:#505050;stroke-width:7.20"/>
	<line x1="696.34" y1="2182.03" x2="688.54" y2="2187.23" style="stroke:#505050;stroke-width:7.20"/>
	<line x1="688.54" y1="2187.23" x2="680.75" y2="2192.55" style="stroke:#505050;stroke-width:7.20"/>
	<line x1="680.75" y1="2192.55" x2="676.42" y2="2195.52" style="stroke:#505050;stroke-width:7.20"/>
	<line x1="652.41" y1="2211.61" x2="649.32" y2="2213.71" style="stroke:#505050;stroke-width:7.20"/>
	<line x1="649.32" y1="2213.71" x2="641.40" y2="2218.91" style="stroke:#505050;stroke-width:7.20"/>
	<line x1="641.40" y1="2218.91" x2="633.60" y2="2224.23" style="stroke:#505050;stroke-width:7.20"/>
	<line x1="633.60" y1="2224.23" x2="625.68" y2="2229.55" style="stroke:#505050;stroke-width:7.20"/>
	<line x1="625.68" y1="2229.55" x2="617.88" y2="2234.87" style="stroke:#505050;stroke-width:7.20"/>
	<line x1="617.88" y1="2234.87" x2="609.96" y2="2240.07" style="stroke:#505050;stroke-width:7.20"/>
	<line x1="609.96" y1="2240.07" x2="604.64" y2="2243.66" style="stroke:#505050;stroke-width:7.20"/>
	<line x1="580.76" y1="2259.75" x2="578.53" y2="2261.23" style="stroke:#505050;stroke-width:7.20"/>
	<line x1="578.53" y1="2261.23" x2="570.74" y2="2266.55" style="stroke:#505050;stroke-width:7.20"/>
	<line x1="570.74" y1="2266.55" x2="562.82" y2="2271.75" style="stroke:#505050;stroke-width:7.20"/>
	<line x1="562.82" y1="2271.75" x2="555.02" y2="2277.07" style="stroke:#505050;stroke-width:7.20"/>
	<line x1="555.02" y1="2277.07" x2="547.10" y2="2282.39" style="stroke:#505050;stroke-width:7.20"/>
	<line x1="547.10" y1="2282.39" x2="539.30" y2="2287.71" style="stroke:#505050;stroke-width:7.20"/>
	<line x1="539.30" y1="2287.71" x2="532.87" y2="2291.92" style="stroke:#505050;stroke-width:7.20"/>
	<line x1="508.98" y1="2308.01" x2="507.87" y2="2308.75" style="stroke:#505050;stroke-width:7.20"/>
	<line x1="507.87" y1="2308.75" x2="499.95" y2="2314.07" style="stroke:#505050;stroke-width:7.20"/>
	<line x1="499.95" y1="2314.07" x2="492.15" y2="2319.39" style="stroke:#505050;stroke-width:7.20"/>
	<line x1="492.15" y1="2319.39" x2="484.23" y2="2324.59" style="stroke:#505050;stroke-width:7.20"/>
	<line x1="484.23" y1="2324.59" x2="476.44" y2="2329.91" style="stroke:#505050;stroke-width:7.20"/>
	<line x1="476.44" y1="2329.91" x2="468.52" y2="2335.24" style="stroke:#505050;stroke-width:7.20"/>
	<line x1="468.52" y1="2335.24" x2="461.22" y2="2340.19" style="stroke:#505050;stroke-width:7.20"/>
	<line x1="437.21" y1="2356.27" x2="437.08" y2="2356.40" style="stroke:#505050;stroke-width:7.20"/>
	<line x1="437.08" y1="2356.40" x2="429.29" y2="2361.60" style="stroke:#505050;stroke-width:7.20"/>
	<line x1="429.29" y1="2361.60" x2="421.37" y2="2366.92" style="stroke:#505050;stroke-width:7.20"/>
	<line x1="421.37" y1="2366.92" x2="413.57" y2="2372.24" style="stroke:#505050;stroke-width:7.20"/>
	<line x1="413.57" y1="2372.24" x2="405.65" y2="2377.44" style="stroke:#505050;stroke-width:7.20"/>
	<line x1="405.65" y1="2377.44" x2="397.86" y2="2382.76" style="stroke:#505050;stroke-width:7.20"/>
	<text x="891.99" y="2029.44" style="font-family:'Helvetica';font-size:79.94px;fill:#505050" text-anchor="end">Proportional</text>
	<text x="1472.01" y="2249.47" style="font-family:'Helvetica';font-size:72.02px;fill:#C81F1f">Republicans</text>
	<text x="1424.86" y="2011.61" style="font-family:'Helvetica';font-size:72.02px;fill:#14619b" text-anchor="end">Democrats</text>
	<line x1="2220.82" y1="1158.95" x2="2220.82" y2="1123.07" stroke-linecap="round" style="fill:none;stroke:#000000;stroke-width:12.96"/>
	<line x1="2220.82" y1="1158.95" x2="2220.82" y2="1123.07" stroke-linecap="round" style="fill:none;stroke:#000000;stroke-width:12.96"/>
	<text x="2326.75" y="1200.70" style="font-family:'Helvetica';font-size:79.94px;fill:#166Baa" text-anchor="middle">235</text>
	<text x="2326.75" y="1200.70" style="font-family:'Helvetica';font-size:79.94px;fill:#166Baa" text-anchor="middle">235</text>
	<line x1="2220.82" y1="1053.27" x2="2220.82" y2="1017.38" stroke-linecap="round" style="fill:none;stroke:#000000;stroke-width:12.96"/>
	<line x1="2220.82" y1="1053.27" x2="2220.82" y2="1017.38" stroke-linecap="round" style="fill:none;stroke:#000000;stroke-width:12.96"/>
	<text x="2204.24" y="1018.37" style="font-family:'Helvetica';font-size:79.94px;fill:#DC2222" text-anchor="end">255</text>
	<text x="2204.24" y="1018.37" style="font-family:'Helvetica';font-size:79.94px;fill:#DC2222" text-anchor="end">255</text>
	<line x1="397.86" y1="2488.44" x2="397.86" y2="57.55" style="stroke:#000000;stroke-width:5.76"/>
	<line x1="397.86" y1="2382.76" x2="357.88" y2="2382.76" style="stroke:#000000;stroke-width:5.76"/>
	<text x="337.84" y="2410.77" style="font-family:'Helvetica';font-size:79.94px;fill:#000000" text-anchor="end">0</text>
	<line x1="397.86" y1="1854.33" x2="357.88" y2="1854.33" style="stroke:#000000;stroke-width:5.76"/>
	<text x="337.84" y="1882.34" style="font-family:'Helvetica';font-size:79.94px;fill:#000000" text-anchor="end">100</text>
	<line x1="397.86" y1="1325.90" x2="357.88" y2="1325.90" style="stroke:#000000;stroke-width:5.76"/>
	<text x="337.84" y="1353.91" style="font-family:'Helvetica';font-size:79.94px;fill:#000000" text-anchor="end">200</text>
	<line x1="397.86" y1="797.47" x2="357.88" y2="797.47" style="stroke:#000000;stroke-width:5.76"/>
	<text x="337.84" y="825.48" style="font-family:'Helvetica';font-size:79.94px;fill:#000000" text-anchor="end">300</text>
	<line x1="397.86" y1="268.92" x2="357.88" y2="268.92" style="stroke:#000000;stroke-width:5.76"/>
	<text x="337.84" y="296.93" style="font-family:'Helvetica';font-size:79.94px;fill:#000000" text-anchor="end">400</text>
	<line x1="397.86" y1="84.03" x2="357.88" y2="84.03" style="stroke:#00FF00;stroke-width:5.76"/>
	<text x="127.34" y="1133.80" style="font-family:'Helvetica';font-size:79.94px;fill:#000000" text-anchor="middle">Seats</text>
	<line x1="397.86" y1="2488.44" x2="3815.83" y2="2488.44" style="stroke:#000000;stroke-width:5.76"/>
	<line x1="397.86" y1="2488.44" x2="397.86" y2="2528.42" style="stroke:#000000;stroke-width:5.76"/>
	<text x="397.86" y="2618.40" style="font-family:'Helvetica';font-size:99.99px;fill:#000000" text-anchor="middle">-100</text>
	<line x1="1252.35" y1="2488.44" x2="1252.35" y2="2528.42" style="stroke:#000000;stroke-width:5.76"/>
	<text x="1252.35" y="2618.40" style="font-family:'Helvetica';font-size:99.99px;fill:#000000" text-anchor="middle">-50</text>
	<line x1="2106.84" y1="2488.44" x2="2106.84" y2="2528.42" style="stroke:#000000;stroke-width:5.76"/>
	<text x="2106.84" y="2618.40" style="font-family:'Helvetica';font-size:99.99px;fill:#000000" text-anchor="middle">0</text>
	<line x1="2961.34" y1="2488.44" x2="2961.34" y2="2528.42" style="stroke:#000000;stroke-width:5.76"/>
	<text x="2961.34" y="2618.40" style="font-family:'Helvetica';font-size:99.99px;fill:#000000" text-anchor="middle">50</text>
	<line x1="3815.83" y1="2488.44" x2="3815.83" y2="2528.42" style="stroke:#000000;stroke-width:5.76"/>
	<text x="3815.83" y="2618.40" style="font-family:'Helvetica';font-size:99.99px;fill:#000000" text-anchor="middle">100%</text>
	<line x1="397.86" y1="2488.44" x2="397.86" y2="2528.42" style="stroke:#000000;stroke-width:5.76"/>
	<line x1="825.16" y1="2488.44" x2="825.16" y2="2528.42" style="stroke:#000000;stroke-width:5.76"/>
	<line x1="1252.35" y1="2488.44" x2="1252.35" y2="2528.42" style="stroke:#000000;stroke-width:5.76"/>
	<line x1="1679.66" y1="2488.44" x2="1679.66" y2="2528.42" style="stroke:#000000;stroke-width:5.76"/>
	<line x1="2106.84" y1="2488.44" x2="2106.84" y2="2528.42" style="stroke:#000000;stroke-width:5.76"/>
	<line x1="2534.15" y1="2488.44" x2="2534.15" y2="2528.42" style="stroke:#000000;stroke-width:5.76"/>
	<line x1="2961.34" y1="2488.44" x2="2961.34" y2="2528.42" style="stroke:#000000;stroke-width:5.76"/>
	<line x1="3388.65" y1="2488.44" x2="3388.65" y2="2528.42" style="stroke:#000000;stroke-width:5.76"/>
	<line x1="3815.83" y1="2488.44" x2="3815.83" y2="2528.42" style="stroke:#000000;stroke-width:5.76"/>
	<text x="2106.84" y="2829.89" style="font-family:'Helvetica';font-size:99.99px;fill:#000000" text-anchor="middle">Popular Vote Margin</text>
</svg>
